<mxfile host="Electron" agent="Mozilla/5.0 (X11; Linux x86_64) AppleWebKit/537.36 (KHTML, like Gecko) draw.io/24.7.8 Chrome/128.0.6613.162 Electron/32.1.2 Safari/537.36" version="24.7.8">
  <diagram name="Page-1" id="jvlIByLQN2yycow2QruO">
    <mxGraphModel dx="1791" dy="2236" grid="1" gridSize="10" guides="1" tooltips="1" connect="1" arrows="1" fold="1" page="1" pageScale="1" pageWidth="850" pageHeight="1100" math="0" shadow="0">
      <root>
        <mxCell id="0" />
        <mxCell id="1" parent="0" />
        <mxCell id="R_dqwmXt6rTbObLlXqyq-1" value="&lt;span style=&quot;color: rgba(0, 0, 0, 0); font-family: monospace; font-size: 0px; text-align: start;&quot;&gt;%3CmxGraphModel%3E%3Croot%3E%3CmxCell%20id%3D%220%22%2F%3E%3CmxCell%20id%3D%221%22%20parent%3D%220%22%2F%3E%3CmxCell%20id%3D%222%22%20style%3D%22edgeStyle%3DorthogonalEdgeStyle%3Brounded%3D0%3BorthogonalLoop%3D1%3BjettySize%3Dauto%3Bhtml%3D1%3B%22%20edge%3D%221%22%20source%3D%223%22%20target%3D%2213%22%20parent%3D%221%22%3E%3CmxGeometry%20relative%3D%221%22%20as%3D%22geometry%22%2F%3E%3C%2FmxCell%3E%3CmxCell%20id%3D%223%22%20value%3D%22End%20User%22%20style%3D%22shape%3DumlActor%3BverticalLabelPosition%3Dbottom%3BverticalAlign%3Dtop%3Bhtml%3D1%3BoutlineConnect%3D0%3B%22%20vertex%3D%221%22%20parent%3D%221%22%3E%3CmxGeometry%20x%3D%22110%22%20y%3D%22165%22%20width%3D%2230%22%20height%3D%2260%22%20as%3D%22geometry%22%2F%3E%3C%2FmxCell%3E%3CmxCell%20id%3D%224%22%20style%3D%22edgeStyle%3DorthogonalEdgeStyle%3Brounded%3D0%3BorthogonalLoop%3D1%3BjettySize%3Dauto%3Bhtml%3D1%3B%22%20edge%3D%221%22%20source%3D%225%22%20target%3D%2220%22%20parent%3D%221%22%3E%3CmxGeometry%20relative%3D%221%22%20as%3D%22geometry%22%2F%3E%3C%2FmxCell%3E%3CmxCell%20id%3D%225%22%20value%3D%22Database%26amp%3Bnbsp%3B%26lt%3Bdiv%26gt%3BAdministrator%26lt%3B%2Fdiv%26gt%3B%22%20style%3D%22shape%3DumlActor%3BverticalLabelPosition%3Dbottom%3BverticalAlign%3Dtop%3Bhtml%3D1%3BoutlineConnect%3D0%3B%22%20vertex%3D%221%22%20parent%3D%221%22%3E%3CmxGeometry%20x%3D%22110%22%20y%3D%22390%22%20width%3D%2230%22%20height%3D%2260%22%20as%3D%22geometry%22%2F%3E%3C%2FmxCell%3E%3CmxCell%20id%3D%226%22%20style%3D%22edgeStyle%3DorthogonalEdgeStyle%3Brounded%3D0%3BorthogonalLoop%3D1%3BjettySize%3Dauto%3Bhtml%3D1%3BentryX%3D1%3BentryY%3D0.5%3BentryDx%3D0%3BentryDy%3D0%3B%22%20edge%3D%221%22%20source%3D%2212%22%20target%3D%2214%22%20parent%3D%221%22%3E%3CmxGeometry%20relative%3D%221%22%20as%3D%22geometry%22%2F%3E%3C%2FmxCell%3E%3CmxCell%20id%3D%227%22%20style%3D%22edgeStyle%3DorthogonalEdgeStyle%3Brounded%3D0%3BorthogonalLoop%3D1%3BjettySize%3Dauto%3Bhtml%3D1%3BentryX%3D1%3BentryY%3D0.5%3BentryDx%3D0%3BentryDy%3D0%3B%22%20edge%3D%221%22%20source%3D%2212%22%20target%3D%2215%22%20parent%3D%221%22%3E%3CmxGeometry%20relative%3D%221%22%20as%3D%22geometry%22%2F%3E%3C%2FmxCell%3E%3CmxCell%20id%3D%228%22%20style%3D%22edgeStyle%3DorthogonalEdgeStyle%3Brounded%3D0%3BorthogonalLoop%3D1%3BjettySize%3Dauto%3Bhtml%3D1%3BentryX%3D1%3BentryY%3D0.5%3BentryDx%3D0%3BentryDy%3D0%3B%22%20edge%3D%221%22%20source%3D%2212%22%20target%3D%2221%22%20parent%3D%221%22%3E%3CmxGeometry%20relative%3D%221%22%20as%3D%22geometry%22%2F%3E%3C%2FmxCell%3E%3CmxCell%20id%3D%229%22%20style%3D%22edgeStyle%3DorthogonalEdgeStyle%3Brounded%3D0%3BorthogonalLoop%3D1%3BjettySize%3Dauto%3Bhtml%3D1%3B%22%20edge%3D%221%22%20source%3D%2212%22%20target%3D%2222%22%20parent%3D%221%22%3E%3CmxGeometry%20relative%3D%221%22%20as%3D%22geometry%22%2F%3E%3C%2FmxCell%3E%3CmxCell%20id%3D%2210%22%20style%3D%22edgeStyle%3DorthogonalEdgeStyle%3Brounded%3D0%3BorthogonalLoop%3D1%3BjettySize%3Dauto%3Bhtml%3D1%3B%22%20edge%3D%221%22%20source%3D%2212%22%20target%3D%2223%22%20parent%3D%221%22%3E%3CmxGeometry%20relative%3D%221%22%20as%3D%22geometry%22%2F%3E%3C%2FmxCell%3E%3CmxCell%20id%3D%2211%22%20style%3D%22edgeStyle%3DorthogonalEdgeStyle%3Brounded%3D0%3BorthogonalLoop%3D1%3BjettySize%3Dauto%3Bhtml%3D1%3BentryX%3D1%3BentryY%3D0.5%3BentryDx%3D0%3BentryDy%3D0%3B%22%20edge%3D%221%22%20source%3D%2212%22%20target%3D%2216%22%20parent%3D%221%22%3E%3CmxGeometry%20relative%3D%221%22%20as%3D%22geometry%22%2F%3E%3C%2FmxCell%3E%3CmxCell%20id%3D%2212%22%20value%3D%22Inventory%26lt%3Bdiv%26gt%3BDatabase%26lt%3B%2Fdiv%26gt%3B%22%20style%3D%22shape%3Dcube%3BwhiteSpace%3Dwrap%3Bhtml%3D1%3BboundedLbl%3D1%3BbackgroundOutline%3D1%3BdarkOpacity%3D0.05%3BdarkOpacity2%3D0.1%3B%22%20vertex%3D%221%22%20parent%3D%221%22%3E%3CmxGeometry%20x%3D%22625%22%20y%3D%22270%22%20width%3D%22130%22%20height%3D%2290%22%20as%3D%22geometry%22%2F%3E%3C%2FmxCell%3E%3CmxCell%20id%3D%2213%22%20value%3D%22End-user%20functions%22%20style%3D%22swimlane%3BfontStyle%3D0%3BchildLayout%3DstackLayout%3Bhorizontal%3D1%3BstartSize%3D30%3BhorizontalStack%3D0%3BresizeParent%3D1%3BresizeParentMax%3D0%3BresizeLast%3D0%3Bcollapsible%3D1%3BmarginBottom%3D0%3BwhiteSpace%3Dwrap%3Bhtml%3D1%3B%22%20vertex%3D%221%22%20parent%3D%221%22%3E%3CmxGeometry%20x%3D%22255%22%20y%3D%22135%22%20width%3D%22140%22%20height%3D%22120%22%20as%3D%22geometry%22%2F%3E%3C%2FmxCell%3E%3CmxCell%20id%3D%2214%22%20value%3D%22Search%20(w%2Fw%2Fout%20scan)%22%20style%3D%22text%3BstrokeColor%3Dnone%3BfillColor%3Dnone%3Balign%3Dleft%3BverticalAlign%3Dmiddle%3BspacingLeft%3D4%3BspacingRight%3D4%3Boverflow%3Dhidden%3Bpoints%3D%5B%5B0%2C0.5%5D%2C%5B1%2C0.5%5D%5D%3BportConstraint%3Deastwest%3Brotatable%3D0%3BwhiteSpace%3Dwrap%3Bhtml%3D1%3B%22%20vertex%3D%221%22%20parent%3D%2213%22%3E%3CmxGeometry%20y%3D%2230%22%20width%3D%22140%22%20height%3D%2230%22%20as%3D%22geometry%22%2F%3E%3C%2FmxCell%3E%3CmxCell%20id%3D%2215%22%20value%3D%22Check-out%22%20style%3D%22text%3BstrokeColor%3Dnone%3BfillColor%3Dnone%3Balign%3Dleft%3BverticalAlign%3Dmiddle%3BspacingLeft%3D4%3BspacingRight%3D4%3Boverflow%3Dhidden%3Bpoints%3D%5B%5B0%2C0.5%5D%2C%5B1%2C0.5%5D%5D%3BportConstraint%3Deastwest%3Brotatable%3D0%3BwhiteSpace%3Dwrap%3Bhtml%3D1%3B%22%20vertex%3D%221%22%20parent%3D%2213%22%3E%3CmxGeometry%20y%3D%2260%22%20width%3D%22140%22%20height%3D%2230%22%20as%3D%22geometry%22%2F%3E%3C%2FmxCell%3E%3CmxCell%20id%3D%2216%22%20value%3D%22Check-in%22%20style%3D%22text%3BstrokeColor%3Dnone%3BfillColor%3Dnone%3Balign%3Dleft%3BverticalAlign%3Dmiddle%3BspacingLeft%3D4%3BspacingRight%3D4%3Boverflow%3Dhidden%3Bpoints%3D%5B%5B0%2C0.5%5D%2C%5B1%2C0.5%5D%5D%3BportConstraint%3Deastwest%3Brotatable%3D0%3BwhiteSpace%3Dwrap%3Bhtml%3D1%3B%22%20vertex%3D%221%22%20parent%3D%2213%22%3E%3CmxGeometry%20y%3D%2290%22%20width%3D%22140%22%20height%3D%2230%22%20as%3D%22geometry%22%2F%3E%3C%2FmxCell%3E%3CmxCell%20id%3D%2217%22%20value%3D%22%22%20style%3D%22endArrow%3Dnone%3Bdashed%3D1%3Bhtml%3D1%3Brounded%3D0%3B%22%20edge%3D%221%22%20parent%3D%221%22%3E%3CmxGeometry%20width%3D%2250%22%20height%3D%2250%22%20relative%3D%221%22%20as%3D%22geometry%22%3E%3CmxPoint%20x%3D%22190%22%20y%3D%22475%22%20as%3D%22sourcePoint%22%2F%3E%3CmxPoint%20x%3D%22190%22%20y%3D%22120%22%20as%3D%22targetPoint%22%2F%3E%3C%2FmxGeometry%3E%3C%2FmxCell%3E%3CmxCell%20id%3D%2218%22%20value%3D%22Users%22%20style%3D%22text%3Bhtml%3D1%3Balign%3Dcenter%3BverticalAlign%3Dmiddle%3BwhiteSpace%3Dwrap%3Brounded%3D0%3BfontSize%3D15%3B%22%20vertex%3D%221%22%20parent%3D%221%22%3E%3CmxGeometry%20x%3D%2275%22%20y%3D%2277%22%20width%3D%22100%22%20height%3D%2240%22%20as%3D%22geometry%22%2F%3E%3C%2FmxCell%3E%3CmxCell%20id%3D%2219%22%20value%3D%22Graphical%20User%20Interface%22%20style%3D%22text%3Bhtml%3D1%3Balign%3Dcenter%3BverticalAlign%3Dmiddle%3BwhiteSpace%3Dwrap%3Brounded%3D0%3BfontSize%3D15%3B%22%20vertex%3D%221%22%20parent%3D%221%22%3E%3CmxGeometry%20x%3D%22240%22%20y%3D%2277%22%20width%3D%22170%22%20height%3D%2240%22%20as%3D%22geometry%22%2F%3E%3C%2FmxCell%3E%3CmxCell%20id%3D%2220%22%20value%3D%22Admin.%20functions%22%20style%3D%22swimlane%3BfontStyle%3D0%3BchildLayout%3DstackLayout%3Bhorizontal%3D1%3BstartSize%3D30%3BhorizontalStack%3D0%3BresizeParent%3D1%3BresizeParentMax%3D0%3BresizeLast%3D0%3Bcollapsible%3D1%3BmarginBottom%3D0%3BwhiteSpace%3Dwrap%3Bhtml%3D1%3B%22%20vertex%3D%221%22%20parent%3D%221%22%3E%3CmxGeometry%20x%3D%22255%22%20y%3D%22360%22%20width%3D%22140%22%20height%3D%22120%22%20as%3D%22geometry%22%2F%3E%3C%2FmxCell%3E%3CmxCell%20id%3D%2221%22%20value%3D%22Add%20item%22%20style%3D%22text%3BstrokeColor%3Dnone%3BfillColor%3Dnone%3Balign%3Dleft%3BverticalAlign%3Dmiddle%3BspacingLeft%3D4%3BspacingRight%3D4%3Boverflow%3Dhidden%3Bpoints%3D%5B%5B0%2C0.5%5D%2C%5B1%2C0.5%5D%5D%3BportConstraint%3Deastwest%3Brotatable%3D0%3BwhiteSpace%3Dwrap%3Bhtml%3D1%3B%22%20vertex%3D%221%22%20parent%3D%2220%22%3E%3CmxGeometry%20y%3D%2230%22%20width%3D%22140%22%20height%3D%2230%22%20as%3D%22geometry%22%2F%3E%3C%2FmxCell%3E%3CmxCell%20id%3D%2222%22%20value%3D%22Remove%20item%22%20style%3D%22text%3BstrokeColor%3Dnone%3BfillColor%3Dnone%3Balign%3Dleft%3BverticalAlign%3Dmiddle%3BspacingLeft%3D4%3BspacingRight%3D4%3Boverflow%3Dhidden%3Bpoints%3D%5B%5B0%2C0.5%5D%2C%5B1%2C0.5%5D%5D%3BportConstraint%3Deastwest%3Brotatable%3D0%3BwhiteSpace%3Dwrap%3Bhtml%3D1%3B%22%20vertex%3D%221%22%20parent%3D%2220%22%3E%3CmxGeometry%20y%3D%2260%22%20width%3D%22140%22%20height%3D%2230%22%20as%3D%22geometry%22%2F%3E%3C%2FmxCell%3E%3CmxCell%20id%3D%2223%22%20value%3D%22Add%20item%20type%22%20style%3D%22text%3BstrokeColor%3Dnone%3BfillColor%3Dnone%3Balign%3Dleft%3BverticalAlign%3Dmiddle%3BspacingLeft%3D4%3BspacingRight%3D4%3Boverflow%3Dhidden%3Bpoints%3D%5B%5B0%2C0.5%5D%2C%5B1%2C0.5%5D%5D%3BportConstraint%3Deastwest%3Brotatable%3D0%3BwhiteSpace%3Dwrap%3Bhtml%3D1%3B%22%20vertex%3D%221%22%20parent%3D%2220%22%3E%3CmxGeometry%20y%3D%2290%22%20width%3D%22140%22%20height%3D%2230%22%20as%3D%22geometry%22%2F%3E%3C%2FmxCell%3E%3CmxCell%20id%3D%2224%22%20value%3D%22%22%20style%3D%22endArrow%3Dnone%3Bdashed%3D1%3Bhtml%3D1%3Brounded%3D0%3B%22%20edge%3D%221%22%20parent%3D%221%22%3E%3CmxGeometry%20width%3D%2250%22%20height%3D%2250%22%20relative%3D%221%22%20as%3D%22geometry%22%3E%3CmxPoint%20x%3D%22440%22%20y%3D%22480%22%20as%3D%22sourcePoint%22%2F%3E%3CmxPoint%20x%3D%22440%22%20y%3D%22120%22%20as%3D%22targetPoint%22%2F%3E%3C%2FmxGeometry%3E%3C%2FmxCell%3E%3CmxCell%20id%3D%2225%22%20value%3D%22Database%20Space%22%20style%3D%22text%3Bhtml%3D1%3Balign%3Dcenter%3BverticalAlign%3Dmiddle%3BwhiteSpace%3Dwrap%3Brounded%3D0%3BfontSize%3D15%3B%22%20vertex%3D%221%22%20parent%3D%221%22%3E%3CmxGeometry%20x%3D%22490%22%20y%3D%2277%22%20width%3D%22135%22%20height%3D%2240%22%20as%3D%22geometry%22%2F%3E%3C%2FmxCell%3E%3CmxCell%20id%3D%2226%22%20style%3D%22edgeStyle%3DorthogonalEdgeStyle%3Brounded%3D0%3BorthogonalLoop%3D1%3BjettySize%3Dauto%3Bhtml%3D1%3B%22%20edge%3D%221%22%20source%3D%2214%22%20target%3D%2212%22%20parent%3D%221%22%3E%3CmxGeometry%20relative%3D%221%22%20as%3D%22geometry%22%2F%3E%3C%2FmxCell%3E%3CmxCell%20id%3D%2227%22%20value%3D%22queries%20(potentially%20through%20scanning%20item)%2C%20returns%20result%22%20style%3D%22text%3Bhtml%3D1%3Balign%3Dcenter%3BverticalAlign%3Dmiddle%3BwhiteSpace%3Dwrap%3Brounded%3D0%3B%22%20vertex%3D%221%22%20parent%3D%221%22%3E%3CmxGeometry%20x%3D%22482.5%22%20y%3D%22150%22%20width%3D%22167.5%22%20height%3D%2230%22%20as%3D%22geometry%22%2F%3E%3C%2FmxCell%3E%3CmxCell%20id%3D%2228%22%20style%3D%22edgeStyle%3DorthogonalEdgeStyle%3Brounded%3D0%3BorthogonalLoop%3D1%3BjettySize%3Dauto%3Bhtml%3D1%3B%22%20edge%3D%221%22%20source%3D%2215%22%20target%3D%2212%22%20parent%3D%221%22%3E%3CmxGeometry%20relative%3D%221%22%20as%3D%22geometry%22%2F%3E%3C%2FmxCell%3E%3CmxCell%20id%3D%2229%22%20value%3D%22updates%20item%20status%2C%20returns%20confirmation%22%20style%3D%22text%3Bhtml%3D1%3Balign%3Dcenter%3BverticalAlign%3Dmiddle%3BwhiteSpace%3Dwrap%3Brounded%3D0%3B%22%20vertex%3D%221%22%20parent%3D%221%22%3E%3CmxGeometry%20x%3D%22425%22%20y%3D%22186%22%20width%3D%22265%22%20height%3D%2230%22%20as%3D%22geometry%22%2F%3E%3C%2FmxCell%3E%3CmxCell%20id%3D%2230%22%20style%3D%22edgeStyle%3DorthogonalEdgeStyle%3Brounded%3D0%3BorthogonalLoop%3D1%3BjettySize%3Dauto%3Bhtml%3D1%3B%22%20edge%3D%221%22%20source%3D%2221%22%20target%3D%2212%22%20parent%3D%221%22%3E%3CmxGeometry%20relative%3D%221%22%20as%3D%22geometry%22%2F%3E%3C%2FmxCell%3E%3CmxCell%20id%3D%2231%22%20style%3D%22edgeStyle%3DorthogonalEdgeStyle%3Brounded%3D0%3BorthogonalLoop%3D1%3BjettySize%3Dauto%3Bhtml%3D1%3B%22%20edge%3D%221%22%20source%3D%2222%22%20target%3D%2212%22%20parent%3D%221%22%3E%3CmxGeometry%20relative%3D%221%22%20as%3D%22geometry%22%2F%3E%3C%2FmxCell%3E%3CmxCell%20id%3D%2232%22%20style%3D%22edgeStyle%3DorthogonalEdgeStyle%3Brounded%3D0%3BorthogonalLoop%3D1%3BjettySize%3Dauto%3Bhtml%3D1%3B%22%20edge%3D%221%22%20source%3D%2223%22%20target%3D%2212%22%20parent%3D%221%22%3E%3CmxGeometry%20relative%3D%221%22%20as%3D%22geometry%22%2F%3E%3C%2FmxCell%3E%3CmxCell%20id%3D%2233%22%20style%3D%22edgeStyle%3DorthogonalEdgeStyle%3Brounded%3D0%3BorthogonalLoop%3D1%3BjettySize%3Dauto%3Bhtml%3D1%3B%22%20edge%3D%221%22%20source%3D%2216%22%20target%3D%2212%22%20parent%3D%221%22%3E%3CmxGeometry%20relative%3D%221%22%20as%3D%22geometry%22%2F%3E%3C%2FmxCell%3E%3CmxCell%20id%3D%2234%22%20value%3D%22updates%20item%20status%2C%20returns%20confirmation%22%20style%3D%22text%3Bhtml%3D1%3Balign%3Dcenter%3BverticalAlign%3Dmiddle%3BwhiteSpace%3Dwrap%3Brounded%3D0%3B%22%20vertex%3D%221%22%20parent%3D%221%22%3E%3CmxGeometry%20x%3D%22425%22%20y%3D%22216%22%20width%3D%22265%22%20height%3D%2230%22%20as%3D%22geometry%22%2F%3E%3C%2FmxCell%3E%3CmxCell%20id%3D%2235%22%20value%3D%22creates%20new%20item%20based%20on%20item%20type%22%20style%3D%22text%3Bhtml%3D1%3Balign%3Dcenter%3BverticalAlign%3Dmiddle%3BwhiteSpace%3Dwrap%3Brounded%3D0%3B%22%20vertex%3D%221%22%20parent%3D%221%22%3E%3CmxGeometry%20x%3D%22425%22%20y%3D%22380%22%20width%3D%22265%22%20height%3D%2230%22%20as%3D%22geometry%22%2F%3E%3C%2FmxCell%3E%3CmxCell%20id%3D%2236%22%20value%3D%22removes%20item%20from%20inventory%22%20style%3D%22text%3Bhtml%3D1%3Balign%3Dcenter%3BverticalAlign%3Dmiddle%3BwhiteSpace%3Dwrap%3Brounded%3D0%3B%22%20vertex%3D%221%22%20parent%3D%221%22%3E%3CmxGeometry%20x%3D%22425%22%20y%3D%22410%22%20width%3D%22265%22%20height%3D%2230%22%20as%3D%22geometry%22%2F%3E%3C%2FmxCell%3E%3CmxCell%20id%3D%2237%22%20value%3D%22adds%20new%20item%20type%20with%20additional%20params.%22%20style%3D%22text%3Bhtml%3D1%3Balign%3Dcenter%3BverticalAlign%3Dmiddle%3BwhiteSpace%3Dwrap%3Brounded%3D0%3B%22%20vertex%3D%221%22%20parent%3D%221%22%3E%3CmxGeometry%20x%3D%22433%22%20y%3D%22440%22%20width%3D%22265%22%20height%3D%2230%22%20as%3D%22geometry%22%2F%3E%3C%2FmxCell%3E%3C%2Froot%3E%3C%2FmxGraphModel%3E&lt;/span&gt;" style="text;html=1;align=center;verticalAlign=middle;resizable=0;points=[];autosize=1;strokeColor=none;fillColor=none;" parent="1" vertex="1">
          <mxGeometry x="60" y="138" width="20" height="30" as="geometry" />
        </mxCell>
        <mxCell id="R_dqwmXt6rTbObLlXqyq-2" style="edgeStyle=orthogonalEdgeStyle;rounded=0;orthogonalLoop=1;jettySize=auto;html=1;" parent="1" source="R_dqwmXt6rTbObLlXqyq-3" target="R_dqwmXt6rTbObLlXqyq-13" edge="1">
          <mxGeometry relative="1" as="geometry" />
        </mxCell>
        <mxCell id="j-hy3Fhhmm9KlKnblh2B-6" style="edgeStyle=orthogonalEdgeStyle;rounded=0;orthogonalLoop=1;jettySize=auto;html=1;entryX=0;entryY=0;entryDx=0;entryDy=0;" parent="1" source="R_dqwmXt6rTbObLlXqyq-3" target="j-hy3Fhhmm9KlKnblh2B-1" edge="1">
          <mxGeometry relative="1" as="geometry">
            <Array as="points">
              <mxPoint x="170" y="195" />
              <mxPoint x="170" y="381" />
            </Array>
          </mxGeometry>
        </mxCell>
        <mxCell id="R_dqwmXt6rTbObLlXqyq-3" value="End User" style="shape=umlActor;verticalLabelPosition=bottom;verticalAlign=top;html=1;outlineConnect=0;" parent="1" vertex="1">
          <mxGeometry x="110" y="165" width="30" height="60" as="geometry" />
        </mxCell>
        <mxCell id="R_dqwmXt6rTbObLlXqyq-4" style="edgeStyle=orthogonalEdgeStyle;rounded=0;orthogonalLoop=1;jettySize=auto;html=1;" parent="1" source="R_dqwmXt6rTbObLlXqyq-5" target="R_dqwmXt6rTbObLlXqyq-20" edge="1">
          <mxGeometry relative="1" as="geometry" />
        </mxCell>
        <mxCell id="R_dqwmXt6rTbObLlXqyq-5" value="Database&amp;nbsp;&lt;div&gt;Administrator&lt;/div&gt;" style="shape=umlActor;verticalLabelPosition=bottom;verticalAlign=top;html=1;outlineConnect=0;" parent="1" vertex="1">
          <mxGeometry x="110" y="810" width="30" height="60" as="geometry" />
        </mxCell>
        <mxCell id="R_dqwmXt6rTbObLlXqyq-6" style="edgeStyle=orthogonalEdgeStyle;rounded=0;orthogonalLoop=1;jettySize=auto;html=1;entryX=1;entryY=0.5;entryDx=0;entryDy=0;" parent="1" source="R_dqwmXt6rTbObLlXqyq-12" target="R_dqwmXt6rTbObLlXqyq-14" edge="1">
          <mxGeometry relative="1" as="geometry" />
        </mxCell>
        <mxCell id="R_dqwmXt6rTbObLlXqyq-7" style="edgeStyle=orthogonalEdgeStyle;rounded=0;orthogonalLoop=1;jettySize=auto;html=1;entryX=1;entryY=0.5;entryDx=0;entryDy=0;" parent="1" source="R_dqwmXt6rTbObLlXqyq-12" target="R_dqwmXt6rTbObLlXqyq-15" edge="1">
          <mxGeometry relative="1" as="geometry" />
        </mxCell>
        <mxCell id="R_dqwmXt6rTbObLlXqyq-8" style="edgeStyle=orthogonalEdgeStyle;rounded=0;orthogonalLoop=1;jettySize=auto;html=1;entryX=1;entryY=0.5;entryDx=0;entryDy=0;" parent="1" target="R_dqwmXt6rTbObLlXqyq-21" edge="1">
          <mxGeometry relative="1" as="geometry">
            <mxPoint x="1095" y="780" as="sourcePoint" />
          </mxGeometry>
        </mxCell>
        <mxCell id="R_dqwmXt6rTbObLlXqyq-9" style="edgeStyle=orthogonalEdgeStyle;rounded=0;orthogonalLoop=1;jettySize=auto;html=1;" parent="1" target="R_dqwmXt6rTbObLlXqyq-22" edge="1">
          <mxGeometry relative="1" as="geometry">
            <mxPoint x="1095" y="780" as="sourcePoint" />
          </mxGeometry>
        </mxCell>
        <mxCell id="R_dqwmXt6rTbObLlXqyq-10" style="edgeStyle=orthogonalEdgeStyle;rounded=0;orthogonalLoop=1;jettySize=auto;html=1;" parent="1" target="R_dqwmXt6rTbObLlXqyq-23" edge="1">
          <mxGeometry relative="1" as="geometry">
            <mxPoint x="1095" y="780" as="sourcePoint" />
          </mxGeometry>
        </mxCell>
        <mxCell id="R_dqwmXt6rTbObLlXqyq-11" style="edgeStyle=orthogonalEdgeStyle;rounded=0;orthogonalLoop=1;jettySize=auto;html=1;entryX=1;entryY=0.5;entryDx=0;entryDy=0;" parent="1" source="R_dqwmXt6rTbObLlXqyq-12" target="R_dqwmXt6rTbObLlXqyq-16" edge="1">
          <mxGeometry relative="1" as="geometry" />
        </mxCell>
        <mxCell id="R_dqwmXt6rTbObLlXqyq-12" value="Inventory&lt;div&gt;Database&lt;/div&gt;" style="shape=cube;whiteSpace=wrap;html=1;boundedLbl=1;backgroundOutline=1;darkOpacity=0.05;darkOpacity2=0.1;" parent="1" vertex="1">
          <mxGeometry x="1030" y="270" width="130" height="90" as="geometry" />
        </mxCell>
        <mxCell id="R_dqwmXt6rTbObLlXqyq-13" value="End-user functions" style="swimlane;fontStyle=0;childLayout=stackLayout;horizontal=1;startSize=30;horizontalStack=0;resizeParent=1;resizeParentMax=0;resizeLast=0;collapsible=1;marginBottom=0;whiteSpace=wrap;html=1;" parent="1" vertex="1">
          <mxGeometry x="255" y="135" width="140" height="120" as="geometry" />
        </mxCell>
        <mxCell id="R_dqwmXt6rTbObLlXqyq-14" value="Search (w/w/out scan)" style="text;strokeColor=none;fillColor=none;align=left;verticalAlign=middle;spacingLeft=4;spacingRight=4;overflow=hidden;points=[[0,0.5],[1,0.5]];portConstraint=eastwest;rotatable=0;whiteSpace=wrap;html=1;" parent="R_dqwmXt6rTbObLlXqyq-13" vertex="1">
          <mxGeometry y="30" width="140" height="30" as="geometry" />
        </mxCell>
        <mxCell id="R_dqwmXt6rTbObLlXqyq-15" value="Check-out" style="text;strokeColor=none;fillColor=none;align=left;verticalAlign=middle;spacingLeft=4;spacingRight=4;overflow=hidden;points=[[0,0.5],[1,0.5]];portConstraint=eastwest;rotatable=0;whiteSpace=wrap;html=1;" parent="R_dqwmXt6rTbObLlXqyq-13" vertex="1">
          <mxGeometry y="60" width="140" height="30" as="geometry" />
        </mxCell>
        <mxCell id="R_dqwmXt6rTbObLlXqyq-16" value="Check-in" style="text;strokeColor=none;fillColor=none;align=left;verticalAlign=middle;spacingLeft=4;spacingRight=4;overflow=hidden;points=[[0,0.5],[1,0.5]];portConstraint=eastwest;rotatable=0;whiteSpace=wrap;html=1;" parent="R_dqwmXt6rTbObLlXqyq-13" vertex="1">
          <mxGeometry y="90" width="140" height="30" as="geometry" />
        </mxCell>
        <mxCell id="R_dqwmXt6rTbObLlXqyq-17" value="" style="endArrow=none;dashed=1;html=1;rounded=0;" parent="1" edge="1">
          <mxGeometry width="50" height="50" relative="1" as="geometry">
            <mxPoint x="190" y="1020" as="sourcePoint" />
            <mxPoint x="190" y="80" as="targetPoint" />
          </mxGeometry>
        </mxCell>
        <mxCell id="R_dqwmXt6rTbObLlXqyq-18" value="&lt;font style=&quot;font-size: 22px;&quot;&gt;Users&lt;/font&gt;" style="text;html=1;align=center;verticalAlign=middle;whiteSpace=wrap;rounded=0;fontSize=15;" parent="1" vertex="1">
          <mxGeometry x="75" y="77" width="100" height="40" as="geometry" />
        </mxCell>
        <mxCell id="R_dqwmXt6rTbObLlXqyq-19" value="&lt;font style=&quot;font-size: 22px;&quot;&gt;User Interfaces&lt;/font&gt;" style="text;html=1;align=center;verticalAlign=middle;whiteSpace=wrap;rounded=0;fontSize=15;" parent="1" vertex="1">
          <mxGeometry x="240" y="77" width="170" height="40" as="geometry" />
        </mxCell>
        <mxCell id="R_dqwmXt6rTbObLlXqyq-20" value="Admin. functions" style="swimlane;fontStyle=0;childLayout=stackLayout;horizontal=1;startSize=30;horizontalStack=0;resizeParent=1;resizeParentMax=0;resizeLast=0;collapsible=1;marginBottom=0;whiteSpace=wrap;html=1;" parent="1" vertex="1">
          <mxGeometry x="255" y="780" width="140" height="120" as="geometry" />
        </mxCell>
        <mxCell id="R_dqwmXt6rTbObLlXqyq-21" value="Add item" style="text;strokeColor=none;fillColor=none;align=left;verticalAlign=middle;spacingLeft=4;spacingRight=4;overflow=hidden;points=[[0,0.5],[1,0.5]];portConstraint=eastwest;rotatable=0;whiteSpace=wrap;html=1;" parent="R_dqwmXt6rTbObLlXqyq-20" vertex="1">
          <mxGeometry y="30" width="140" height="30" as="geometry" />
        </mxCell>
        <mxCell id="R_dqwmXt6rTbObLlXqyq-22" value="Remove item" style="text;strokeColor=none;fillColor=none;align=left;verticalAlign=middle;spacingLeft=4;spacingRight=4;overflow=hidden;points=[[0,0.5],[1,0.5]];portConstraint=eastwest;rotatable=0;whiteSpace=wrap;html=1;" parent="R_dqwmXt6rTbObLlXqyq-20" vertex="1">
          <mxGeometry y="60" width="140" height="30" as="geometry" />
        </mxCell>
        <mxCell id="R_dqwmXt6rTbObLlXqyq-23" value="Add item type" style="text;strokeColor=none;fillColor=none;align=left;verticalAlign=middle;spacingLeft=4;spacingRight=4;overflow=hidden;points=[[0,0.5],[1,0.5]];portConstraint=eastwest;rotatable=0;whiteSpace=wrap;html=1;" parent="R_dqwmXt6rTbObLlXqyq-20" vertex="1">
          <mxGeometry y="90" width="140" height="30" as="geometry" />
        </mxCell>
        <mxCell id="R_dqwmXt6rTbObLlXqyq-24" value="" style="endArrow=none;dashed=1;html=1;rounded=0;" parent="1" edge="1">
          <mxGeometry width="50" height="50" relative="1" as="geometry">
            <mxPoint x="839" y="1020" as="sourcePoint" />
            <mxPoint x="839" y="77" as="targetPoint" />
          </mxGeometry>
        </mxCell>
        <mxCell id="R_dqwmXt6rTbObLlXqyq-25" value="&lt;font style=&quot;font-size: 22px;&quot;&gt;Database Space&lt;/font&gt;" style="text;html=1;align=center;verticalAlign=middle;whiteSpace=wrap;rounded=0;fontSize=15;" parent="1" vertex="1">
          <mxGeometry x="883.75" y="77" width="175" height="40" as="geometry" />
        </mxCell>
        <mxCell id="R_dqwmXt6rTbObLlXqyq-26" style="edgeStyle=orthogonalEdgeStyle;rounded=0;orthogonalLoop=1;jettySize=auto;html=1;" parent="1" source="R_dqwmXt6rTbObLlXqyq-14" target="R_dqwmXt6rTbObLlXqyq-12" edge="1">
          <mxGeometry relative="1" as="geometry" />
        </mxCell>
        <mxCell id="R_dqwmXt6rTbObLlXqyq-27" value="queries (potentially through scanning item), returns result" style="text;html=1;align=center;verticalAlign=middle;whiteSpace=wrap;rounded=0;" parent="1" vertex="1">
          <mxGeometry x="887.5" y="150" width="167.5" height="30" as="geometry" />
        </mxCell>
        <mxCell id="R_dqwmXt6rTbObLlXqyq-28" style="edgeStyle=orthogonalEdgeStyle;rounded=0;orthogonalLoop=1;jettySize=auto;html=1;" parent="1" source="R_dqwmXt6rTbObLlXqyq-15" target="R_dqwmXt6rTbObLlXqyq-12" edge="1">
          <mxGeometry relative="1" as="geometry" />
        </mxCell>
        <mxCell id="R_dqwmXt6rTbObLlXqyq-29" value="updates item status, returns confirmation" style="text;html=1;align=center;verticalAlign=middle;whiteSpace=wrap;rounded=0;" parent="1" vertex="1">
          <mxGeometry x="830" y="186" width="265" height="30" as="geometry" />
        </mxCell>
        <mxCell id="R_dqwmXt6rTbObLlXqyq-30" style="edgeStyle=orthogonalEdgeStyle;rounded=0;orthogonalLoop=1;jettySize=auto;html=1;" parent="1" source="R_dqwmXt6rTbObLlXqyq-21" target="R_dqwmXt6rTbObLlXqyq-12" edge="1">
          <mxGeometry relative="1" as="geometry">
            <mxPoint x="1095" y="640" as="targetPoint" />
          </mxGeometry>
        </mxCell>
        <mxCell id="R_dqwmXt6rTbObLlXqyq-31" style="edgeStyle=orthogonalEdgeStyle;rounded=0;orthogonalLoop=1;jettySize=auto;html=1;" parent="1" source="R_dqwmXt6rTbObLlXqyq-22" target="R_dqwmXt6rTbObLlXqyq-12" edge="1">
          <mxGeometry relative="1" as="geometry">
            <mxPoint x="1095" y="640" as="targetPoint" />
          </mxGeometry>
        </mxCell>
        <mxCell id="R_dqwmXt6rTbObLlXqyq-32" style="edgeStyle=orthogonalEdgeStyle;rounded=0;orthogonalLoop=1;jettySize=auto;html=1;" parent="1" source="R_dqwmXt6rTbObLlXqyq-23" target="R_dqwmXt6rTbObLlXqyq-12" edge="1">
          <mxGeometry relative="1" as="geometry">
            <mxPoint x="1095" y="640" as="targetPoint" />
          </mxGeometry>
        </mxCell>
        <mxCell id="R_dqwmXt6rTbObLlXqyq-33" style="edgeStyle=orthogonalEdgeStyle;rounded=0;orthogonalLoop=1;jettySize=auto;html=1;" parent="1" source="R_dqwmXt6rTbObLlXqyq-16" target="R_dqwmXt6rTbObLlXqyq-12" edge="1">
          <mxGeometry relative="1" as="geometry" />
        </mxCell>
        <mxCell id="R_dqwmXt6rTbObLlXqyq-34" value="updates item status, returns confirmation" style="text;html=1;align=center;verticalAlign=middle;whiteSpace=wrap;rounded=0;" parent="1" vertex="1">
          <mxGeometry x="830" y="216" width="265" height="30" as="geometry" />
        </mxCell>
        <mxCell id="R_dqwmXt6rTbObLlXqyq-35" value="creates new item based on item type" style="text;html=1;align=center;verticalAlign=middle;whiteSpace=wrap;rounded=0;" parent="1" vertex="1">
          <mxGeometry x="830" y="800" width="265" height="30" as="geometry" />
        </mxCell>
        <mxCell id="R_dqwmXt6rTbObLlXqyq-36" value="removes item from inventory" style="text;html=1;align=center;verticalAlign=middle;whiteSpace=wrap;rounded=0;" parent="1" vertex="1">
          <mxGeometry x="830" y="830" width="265" height="30" as="geometry" />
        </mxCell>
        <mxCell id="R_dqwmXt6rTbObLlXqyq-37" value="adds new item type with additional params." style="text;html=1;align=center;verticalAlign=middle;whiteSpace=wrap;rounded=0;" parent="1" vertex="1">
          <mxGeometry x="838" y="860" width="265" height="30" as="geometry" />
        </mxCell>
        <mxCell id="R_dqwmXt6rTbObLlXqyq-38" value="" style="rounded=0;whiteSpace=wrap;html=1;" parent="1" vertex="1">
          <mxGeometry x="470" y="77" width="330" height="233" as="geometry" />
        </mxCell>
        <mxCell id="R_dqwmXt6rTbObLlXqyq-39" value="" style="rounded=0;whiteSpace=wrap;html=1;" parent="1" vertex="1">
          <mxGeometry x="470" y="760" width="330" height="223" as="geometry" />
        </mxCell>
        <mxCell id="R_dqwmXt6rTbObLlXqyq-43" value="Search" style="rounded=0;whiteSpace=wrap;html=1;" parent="1" vertex="1">
          <mxGeometry x="730" y="87" width="60" height="30" as="geometry" />
        </mxCell>
        <mxCell id="R_dqwmXt6rTbObLlXqyq-45" value="" style="rounded=0;whiteSpace=wrap;html=1;" parent="1" vertex="1">
          <mxGeometry x="480" y="87" width="240" height="30" as="geometry" />
        </mxCell>
        <mxCell id="R_dqwmXt6rTbObLlXqyq-46" value="Books" style="swimlane;fontStyle=0;childLayout=stackLayout;horizontal=1;startSize=30;horizontalStack=0;resizeParent=1;resizeParentMax=0;resizeLast=0;collapsible=1;marginBottom=0;whiteSpace=wrap;html=1;" parent="1" vertex="1">
          <mxGeometry x="480" y="126" width="100" height="150" as="geometry" />
        </mxCell>
        <mxCell id="R_dqwmXt6rTbObLlXqyq-47" value="Item 1" style="text;strokeColor=none;fillColor=none;align=left;verticalAlign=middle;spacingLeft=4;spacingRight=4;overflow=hidden;points=[[0,0.5],[1,0.5]];portConstraint=eastwest;rotatable=0;whiteSpace=wrap;html=1;" parent="R_dqwmXt6rTbObLlXqyq-46" vertex="1">
          <mxGeometry y="30" width="100" height="30" as="geometry" />
        </mxCell>
        <mxCell id="R_dqwmXt6rTbObLlXqyq-48" value="Item 2" style="text;strokeColor=none;fillColor=none;align=left;verticalAlign=middle;spacingLeft=4;spacingRight=4;overflow=hidden;points=[[0,0.5],[1,0.5]];portConstraint=eastwest;rotatable=0;whiteSpace=wrap;html=1;" parent="R_dqwmXt6rTbObLlXqyq-46" vertex="1">
          <mxGeometry y="60" width="100" height="30" as="geometry" />
        </mxCell>
        <mxCell id="R_dqwmXt6rTbObLlXqyq-49" value="Item 3" style="text;strokeColor=none;fillColor=none;align=left;verticalAlign=middle;spacingLeft=4;spacingRight=4;overflow=hidden;points=[[0,0.5],[1,0.5]];portConstraint=eastwest;rotatable=0;whiteSpace=wrap;html=1;" parent="R_dqwmXt6rTbObLlXqyq-46" vertex="1">
          <mxGeometry y="90" width="100" height="30" as="geometry" />
        </mxCell>
        <mxCell id="R_dqwmXt6rTbObLlXqyq-60" value="Item 4" style="text;strokeColor=none;fillColor=none;align=left;verticalAlign=middle;spacingLeft=4;spacingRight=4;overflow=hidden;points=[[0,0.5],[1,0.5]];portConstraint=eastwest;rotatable=0;whiteSpace=wrap;html=1;" parent="R_dqwmXt6rTbObLlXqyq-46" vertex="1">
          <mxGeometry y="120" width="100" height="30" as="geometry" />
        </mxCell>
        <mxCell id="R_dqwmXt6rTbObLlXqyq-50" value="Magazines" style="swimlane;fontStyle=0;childLayout=stackLayout;horizontal=1;startSize=30;horizontalStack=0;resizeParent=1;resizeParentMax=0;resizeLast=0;collapsible=1;marginBottom=0;whiteSpace=wrap;html=1;" parent="1" vertex="1">
          <mxGeometry x="585" y="126" width="100" height="120" as="geometry" />
        </mxCell>
        <mxCell id="R_dqwmXt6rTbObLlXqyq-51" value="Item 1" style="text;strokeColor=none;fillColor=none;align=left;verticalAlign=middle;spacingLeft=4;spacingRight=4;overflow=hidden;points=[[0,0.5],[1,0.5]];portConstraint=eastwest;rotatable=0;whiteSpace=wrap;html=1;" parent="R_dqwmXt6rTbObLlXqyq-50" vertex="1">
          <mxGeometry y="30" width="100" height="30" as="geometry" />
        </mxCell>
        <mxCell id="R_dqwmXt6rTbObLlXqyq-52" value="Item 2" style="text;strokeColor=none;fillColor=none;align=left;verticalAlign=middle;spacingLeft=4;spacingRight=4;overflow=hidden;points=[[0,0.5],[1,0.5]];portConstraint=eastwest;rotatable=0;whiteSpace=wrap;html=1;" parent="R_dqwmXt6rTbObLlXqyq-50" vertex="1">
          <mxGeometry y="60" width="100" height="30" as="geometry" />
        </mxCell>
        <mxCell id="R_dqwmXt6rTbObLlXqyq-53" value="Item 3" style="text;strokeColor=none;fillColor=none;align=left;verticalAlign=middle;spacingLeft=4;spacingRight=4;overflow=hidden;points=[[0,0.5],[1,0.5]];portConstraint=eastwest;rotatable=0;whiteSpace=wrap;html=1;" parent="R_dqwmXt6rTbObLlXqyq-50" vertex="1">
          <mxGeometry y="90" width="100" height="30" as="geometry" />
        </mxCell>
        <mxCell id="R_dqwmXt6rTbObLlXqyq-54" value="Tools" style="swimlane;fontStyle=0;childLayout=stackLayout;horizontal=1;startSize=30;horizontalStack=0;resizeParent=1;resizeParentMax=0;resizeLast=0;collapsible=1;marginBottom=0;whiteSpace=wrap;html=1;" parent="1" vertex="1">
          <mxGeometry x="690" y="126" width="100" height="120" as="geometry" />
        </mxCell>
        <mxCell id="R_dqwmXt6rTbObLlXqyq-55" value="Item 1" style="text;strokeColor=none;fillColor=none;align=left;verticalAlign=middle;spacingLeft=4;spacingRight=4;overflow=hidden;points=[[0,0.5],[1,0.5]];portConstraint=eastwest;rotatable=0;whiteSpace=wrap;html=1;" parent="R_dqwmXt6rTbObLlXqyq-54" vertex="1">
          <mxGeometry y="30" width="100" height="30" as="geometry" />
        </mxCell>
        <mxCell id="R_dqwmXt6rTbObLlXqyq-56" value="Item 2" style="text;strokeColor=none;fillColor=none;align=left;verticalAlign=middle;spacingLeft=4;spacingRight=4;overflow=hidden;points=[[0,0.5],[1,0.5]];portConstraint=eastwest;rotatable=0;whiteSpace=wrap;html=1;" parent="R_dqwmXt6rTbObLlXqyq-54" vertex="1">
          <mxGeometry y="60" width="100" height="30" as="geometry" />
        </mxCell>
        <mxCell id="R_dqwmXt6rTbObLlXqyq-57" value="Item 3" style="text;strokeColor=none;fillColor=none;align=left;verticalAlign=middle;spacingLeft=4;spacingRight=4;overflow=hidden;points=[[0,0.5],[1,0.5]];portConstraint=eastwest;rotatable=0;whiteSpace=wrap;html=1;" parent="R_dqwmXt6rTbObLlXqyq-54" vertex="1">
          <mxGeometry y="90" width="100" height="30" as="geometry" />
        </mxCell>
        <mxCell id="R_dqwmXt6rTbObLlXqyq-58" value="" style="rounded=0;whiteSpace=wrap;html=1;" parent="1" vertex="1">
          <mxGeometry x="480" y="290" width="310" height="10" as="geometry" />
        </mxCell>
        <mxCell id="R_dqwmXt6rTbObLlXqyq-59" value="" style="rounded=0;whiteSpace=wrap;html=1;fillColor=#000000;" parent="1" vertex="1">
          <mxGeometry x="520" y="290" width="40" height="10" as="geometry" />
        </mxCell>
        <mxCell id="R_dqwmXt6rTbObLlXqyq-62" value="&lt;font style=&quot;font-size: 14px;&quot;&gt;Add Item&lt;/font&gt;" style="text;html=1;align=center;verticalAlign=middle;whiteSpace=wrap;rounded=0;" parent="1" vertex="1">
          <mxGeometry x="480" y="770" width="60" height="30" as="geometry" />
        </mxCell>
        <mxCell id="R_dqwmXt6rTbObLlXqyq-69" value="Type:" style="text;html=1;align=center;verticalAlign=middle;whiteSpace=wrap;rounded=0;" parent="1" vertex="1">
          <mxGeometry x="470" y="803" width="60" height="30" as="geometry" />
        </mxCell>
        <mxCell id="R_dqwmXt6rTbObLlXqyq-70" value="" style="rounded=0;whiteSpace=wrap;html=1;" parent="1" vertex="1">
          <mxGeometry x="520" y="809" width="110" height="15" as="geometry" />
        </mxCell>
        <mxCell id="R_dqwmXt6rTbObLlXqyq-71" value="" style="rounded=0;whiteSpace=wrap;html=1;" parent="1" vertex="1">
          <mxGeometry x="617" y="812" width="10" height="10" as="geometry" />
        </mxCell>
        <mxCell id="R_dqwmXt6rTbObLlXqyq-72" value="" style="triangle;whiteSpace=wrap;html=1;rotation=90;" parent="1" vertex="1">
          <mxGeometry x="617" y="812" width="10" height="10" as="geometry" />
        </mxCell>
        <mxCell id="R_dqwmXt6rTbObLlXqyq-76" value="" style="endArrow=none;html=1;rounded=0;" parent="1" edge="1">
          <mxGeometry width="50" height="50" relative="1" as="geometry">
            <mxPoint x="480" y="797.31" as="sourcePoint" />
            <mxPoint x="560" y="797.31" as="targetPoint" />
          </mxGeometry>
        </mxCell>
        <mxCell id="R_dqwmXt6rTbObLlXqyq-77" value="Name:" style="text;html=1;align=center;verticalAlign=middle;whiteSpace=wrap;rounded=0;fontColor=#B3B3B3;fillColor=default;" parent="1" vertex="1">
          <mxGeometry x="474" y="832" width="50" height="30" as="geometry" />
        </mxCell>
        <mxCell id="R_dqwmXt6rTbObLlXqyq-78" value="" style="rounded=0;whiteSpace=wrap;html=1;fontColor=#B3B3B3;fillColor=default;strokeColor=#B3B3B3;" parent="1" vertex="1">
          <mxGeometry x="520" y="838" width="110" height="15" as="geometry" />
        </mxCell>
        <mxCell id="R_dqwmXt6rTbObLlXqyq-81" value="Author:" style="text;html=1;align=center;verticalAlign=middle;whiteSpace=wrap;rounded=0;fontColor=#B3B3B3;fillColor=default;" parent="1" vertex="1">
          <mxGeometry x="473" y="862" width="50" height="30" as="geometry" />
        </mxCell>
        <mxCell id="R_dqwmXt6rTbObLlXqyq-82" value="" style="rounded=0;whiteSpace=wrap;html=1;fontColor=#B3B3B3;fillColor=default;strokeColor=#B3B3B3;" parent="1" vertex="1">
          <mxGeometry x="520" y="868" width="110" height="15" as="geometry" />
        </mxCell>
        <mxCell id="R_dqwmXt6rTbObLlXqyq-85" value="Etc.:" style="text;html=1;align=center;verticalAlign=middle;whiteSpace=wrap;rounded=0;fontColor=#B3B3B3;fillColor=default;" parent="1" vertex="1">
          <mxGeometry x="480" y="892" width="50" height="30" as="geometry" />
        </mxCell>
        <mxCell id="R_dqwmXt6rTbObLlXqyq-86" value="" style="rounded=0;whiteSpace=wrap;html=1;fontColor=#B3B3B3;fillColor=default;strokeColor=#B3B3B3;" parent="1" vertex="1">
          <mxGeometry x="520" y="898" width="110" height="15" as="geometry" />
        </mxCell>
        <mxCell id="R_dqwmXt6rTbObLlXqyq-90" style="edgeStyle=orthogonalEdgeStyle;rounded=0;orthogonalLoop=1;jettySize=auto;html=1;entryX=1;entryY=0.5;entryDx=0;entryDy=0;" parent="1" source="R_dqwmXt6rTbObLlXqyq-89" target="R_dqwmXt6rTbObLlXqyq-78" edge="1">
          <mxGeometry relative="1" as="geometry">
            <Array as="points">
              <mxPoint x="735" y="846" />
              <mxPoint x="655" y="846" />
            </Array>
          </mxGeometry>
        </mxCell>
        <mxCell id="R_dqwmXt6rTbObLlXqyq-89" value="Item parameters hidden until type chosen (&lt;span class=&quot;kY2IgmnCmOGjharHErah&quot; style=&quot;-webkit-line-clamp: 3;&quot;&gt;&lt;b&gt;dependent&lt;/b&gt;&lt;/span&gt;)" style="text;html=1;align=center;verticalAlign=middle;whiteSpace=wrap;rounded=0;" parent="1" vertex="1">
          <mxGeometry x="670" y="774" width="120" height="48" as="geometry" />
        </mxCell>
        <mxCell id="R_dqwmXt6rTbObLlXqyq-91" value="Cancel" style="rounded=1;whiteSpace=wrap;html=1;" parent="1" vertex="1">
          <mxGeometry x="661" y="944" width="60" height="30" as="geometry" />
        </mxCell>
        <mxCell id="j-hy3Fhhmm9KlKnblh2B-106" style="edgeStyle=orthogonalEdgeStyle;rounded=0;orthogonalLoop=1;jettySize=auto;html=1;entryX=0;entryY=0;entryDx=0;entryDy=0;" parent="1" source="R_dqwmXt6rTbObLlXqyq-92" target="j-hy3Fhhmm9KlKnblh2B-1" edge="1">
          <mxGeometry relative="1" as="geometry">
            <Array as="points">
              <mxPoint x="761" y="1010" />
              <mxPoint x="220" y="1010" />
              <mxPoint x="220" y="381" />
            </Array>
          </mxGeometry>
        </mxCell>
        <mxCell id="R_dqwmXt6rTbObLlXqyq-92" value="Add" style="rounded=1;whiteSpace=wrap;html=1;" parent="1" vertex="1">
          <mxGeometry x="731" y="944" width="60" height="30" as="geometry" />
        </mxCell>
        <mxCell id="j-hy3Fhhmm9KlKnblh2B-94" style="edgeStyle=orthogonalEdgeStyle;rounded=0;orthogonalLoop=1;jettySize=auto;html=1;entryX=0;entryY=0.5;entryDx=0;entryDy=0;" parent="1" source="j-hy3Fhhmm9KlKnblh2B-1" target="R_dqwmXt6rTbObLlXqyq-45" edge="1">
          <mxGeometry relative="1" as="geometry">
            <Array as="points">
              <mxPoint x="276" y="320" />
              <mxPoint x="440" y="320" />
              <mxPoint x="440" y="102" />
            </Array>
          </mxGeometry>
        </mxCell>
        <mxCell id="j-hy3Fhhmm9KlKnblh2B-1" value="" style="shape=process;whiteSpace=wrap;html=1;backgroundOutline=1;rotation=-45;" parent="1" vertex="1">
          <mxGeometry x="248.48000000000002" y="359.7" width="55" height="14" as="geometry" />
        </mxCell>
        <mxCell id="j-hy3Fhhmm9KlKnblh2B-4" value="Scanning tool (barcode reader, NFC chip reader, etc.)" style="text;html=1;align=center;verticalAlign=middle;whiteSpace=wrap;rounded=0;" parent="1" vertex="1">
          <mxGeometry x="240" y="405" width="104" height="60" as="geometry" />
        </mxCell>
        <mxCell id="j-hy3Fhhmm9KlKnblh2B-5" value="" style="endArrow=none;dashed=1;html=1;rounded=0;" parent="1" edge="1">
          <mxGeometry width="50" height="50" relative="1" as="geometry">
            <mxPoint x="297" y="350" as="sourcePoint" />
            <mxPoint x="317" y="380" as="targetPoint" />
            <Array as="points">
              <mxPoint x="327" y="390" />
            </Array>
          </mxGeometry>
        </mxCell>
        <mxCell id="j-hy3Fhhmm9KlKnblh2B-8" value="" style="swimlane;horizontal=0;whiteSpace=wrap;html=1;startSize=10;" parent="1" vertex="1">
          <mxGeometry x="418" y="370" width="80" height="90" as="geometry" />
        </mxCell>
        <mxCell id="j-hy3Fhhmm9KlKnblh2B-9" value="Lorem&lt;div&gt;Ipsum&lt;/div&gt;" style="text;html=1;align=center;verticalAlign=middle;whiteSpace=wrap;rounded=0;" parent="j-hy3Fhhmm9KlKnblh2B-8" vertex="1">
          <mxGeometry x="15" y="30" width="60" height="30" as="geometry" />
        </mxCell>
        <mxCell id="j-hy3Fhhmm9KlKnblh2B-68" value="Book Schema" style="swimlane;fontStyle=0;childLayout=stackLayout;horizontal=1;startSize=30;horizontalStack=0;resizeParent=1;resizeParentMax=0;resizeLast=0;collapsible=1;marginBottom=0;whiteSpace=wrap;html=1;" parent="1" vertex="1">
          <mxGeometry x="375.5" y="480" width="165" height="150" as="geometry" />
        </mxCell>
        <mxCell id="j-hy3Fhhmm9KlKnblh2B-69" value="ISBN (tag metadata)&lt;span style=&quot;white-space: pre;&quot;&gt;&#x9;&lt;/span&gt;" style="text;strokeColor=none;fillColor=none;align=left;verticalAlign=middle;spacingLeft=4;spacingRight=4;overflow=hidden;points=[[0,0.5],[1,0.5]];portConstraint=eastwest;rotatable=0;whiteSpace=wrap;html=1;" parent="j-hy3Fhhmm9KlKnblh2B-68" vertex="1">
          <mxGeometry y="30" width="165" height="30" as="geometry" />
        </mxCell>
        <mxCell id="j-hy3Fhhmm9KlKnblh2B-78" value="Status (in inv, checked out?)" style="text;strokeColor=none;fillColor=none;align=left;verticalAlign=middle;spacingLeft=4;spacingRight=4;overflow=hidden;points=[[0,0.5],[1,0.5]];portConstraint=eastwest;rotatable=0;whiteSpace=wrap;html=1;" parent="j-hy3Fhhmm9KlKnblh2B-68" vertex="1">
          <mxGeometry y="60" width="165" height="30" as="geometry" />
        </mxCell>
        <mxCell id="j-hy3Fhhmm9KlKnblh2B-93" value="" style="endArrow=none;dashed=1;html=1;dashPattern=1 3;strokeWidth=2;rounded=0;" parent="j-hy3Fhhmm9KlKnblh2B-68" edge="1">
          <mxGeometry width="50" height="50" relative="1" as="geometry">
            <mxPoint x="-17.5" y="90" as="sourcePoint" />
            <mxPoint x="362.5" y="90" as="targetPoint" />
          </mxGeometry>
        </mxCell>
        <mxCell id="j-hy3Fhhmm9KlKnblh2B-70" value="Title" style="text;strokeColor=none;fillColor=none;align=left;verticalAlign=middle;spacingLeft=4;spacingRight=4;overflow=hidden;points=[[0,0.5],[1,0.5]];portConstraint=eastwest;rotatable=0;whiteSpace=wrap;html=1;" parent="j-hy3Fhhmm9KlKnblh2B-68" vertex="1">
          <mxGeometry y="90" width="165" height="30" as="geometry" />
        </mxCell>
        <mxCell id="j-hy3Fhhmm9KlKnblh2B-71" value="Author" style="text;strokeColor=none;fillColor=none;align=left;verticalAlign=middle;spacingLeft=4;spacingRight=4;overflow=hidden;points=[[0,0.5],[1,0.5]];portConstraint=eastwest;rotatable=0;whiteSpace=wrap;html=1;" parent="j-hy3Fhhmm9KlKnblh2B-68" vertex="1">
          <mxGeometry y="120" width="165" height="30" as="geometry" />
        </mxCell>
        <mxCell id="j-hy3Fhhmm9KlKnblh2B-74" value="Tool Schema" style="swimlane;fontStyle=0;childLayout=stackLayout;horizontal=1;startSize=30;horizontalStack=0;resizeParent=1;resizeParentMax=0;resizeLast=0;collapsible=1;marginBottom=0;whiteSpace=wrap;html=1;" parent="1" vertex="1">
          <mxGeometry x="555.5" y="480" width="165" height="150" as="geometry" />
        </mxCell>
        <mxCell id="j-hy3Fhhmm9KlKnblh2B-75" value="NFC (tag metadata)" style="text;strokeColor=none;fillColor=none;align=left;verticalAlign=middle;spacingLeft=4;spacingRight=4;overflow=hidden;points=[[0,0.5],[1,0.5]];portConstraint=eastwest;rotatable=0;whiteSpace=wrap;html=1;" parent="j-hy3Fhhmm9KlKnblh2B-74" vertex="1">
          <mxGeometry y="30" width="165" height="30" as="geometry" />
        </mxCell>
        <mxCell id="j-hy3Fhhmm9KlKnblh2B-80" value="Status (in inv, checked out?)" style="text;strokeColor=none;fillColor=none;align=left;verticalAlign=middle;spacingLeft=4;spacingRight=4;overflow=hidden;points=[[0,0.5],[1,0.5]];portConstraint=eastwest;rotatable=0;whiteSpace=wrap;html=1;" parent="j-hy3Fhhmm9KlKnblh2B-74" vertex="1">
          <mxGeometry y="60" width="165" height="30" as="geometry" />
        </mxCell>
        <mxCell id="j-hy3Fhhmm9KlKnblh2B-76" value="Location" style="text;strokeColor=none;fillColor=none;align=left;verticalAlign=middle;spacingLeft=4;spacingRight=4;overflow=hidden;points=[[0,0.5],[1,0.5]];portConstraint=eastwest;rotatable=0;whiteSpace=wrap;html=1;" parent="j-hy3Fhhmm9KlKnblh2B-74" vertex="1">
          <mxGeometry y="90" width="165" height="30" as="geometry" />
        </mxCell>
        <mxCell id="j-hy3Fhhmm9KlKnblh2B-77" value="Certification required?" style="text;strokeColor=none;fillColor=none;align=left;verticalAlign=middle;spacingLeft=4;spacingRight=4;overflow=hidden;points=[[0,0.5],[1,0.5]];portConstraint=eastwest;rotatable=0;whiteSpace=wrap;html=1;" parent="j-hy3Fhhmm9KlKnblh2B-74" vertex="1">
          <mxGeometry y="120" width="165" height="30" as="geometry" />
        </mxCell>
        <mxCell id="j-hy3Fhhmm9KlKnblh2B-81" value="" style="endArrow=none;html=1;rounded=0;" parent="1" edge="1">
          <mxGeometry width="50" height="50" relative="1" as="geometry">
            <mxPoint x="342" y="518" as="sourcePoint" />
            <mxPoint x="372" y="518" as="targetPoint" />
          </mxGeometry>
        </mxCell>
        <mxCell id="j-hy3Fhhmm9KlKnblh2B-82" value="" style="endArrow=none;html=1;rounded=0;" parent="1" edge="1">
          <mxGeometry width="50" height="50" relative="1" as="geometry">
            <mxPoint x="342" y="558" as="sourcePoint" />
            <mxPoint x="372" y="558" as="targetPoint" />
          </mxGeometry>
        </mxCell>
        <mxCell id="j-hy3Fhhmm9KlKnblh2B-83" value="" style="endArrow=none;html=1;rounded=0;" parent="1" edge="1">
          <mxGeometry width="50" height="50" relative="1" as="geometry">
            <mxPoint x="342" y="559" as="sourcePoint" />
            <mxPoint x="342" y="549" as="targetPoint" />
            <Array as="points">
              <mxPoint x="342" y="518" />
            </Array>
          </mxGeometry>
        </mxCell>
        <mxCell id="j-hy3Fhhmm9KlKnblh2B-89" style="edgeStyle=orthogonalEdgeStyle;rounded=0;orthogonalLoop=1;jettySize=auto;html=1;curved=1;" parent="1" source="j-hy3Fhhmm9KlKnblh2B-84" edge="1">
          <mxGeometry relative="1" as="geometry">
            <mxPoint x="328" y="540" as="targetPoint" />
            <Array as="points">
              <mxPoint x="373" y="650" />
              <mxPoint x="298" y="650" />
              <mxPoint x="298" y="540" />
            </Array>
          </mxGeometry>
        </mxCell>
        <mxCell id="j-hy3Fhhmm9KlKnblh2B-84" value="Immutable, base class attributes" style="text;html=1;align=center;verticalAlign=middle;whiteSpace=wrap;rounded=0;" parent="1" vertex="1">
          <mxGeometry x="319.48" y="690" width="100" height="30" as="geometry" />
        </mxCell>
        <mxCell id="j-hy3Fhhmm9KlKnblh2B-86" value="" style="endArrow=none;html=1;rounded=0;" parent="1" edge="1">
          <mxGeometry width="50" height="50" relative="1" as="geometry">
            <mxPoint x="339" y="577" as="sourcePoint" />
            <mxPoint x="369" y="577" as="targetPoint" />
          </mxGeometry>
        </mxCell>
        <mxCell id="j-hy3Fhhmm9KlKnblh2B-87" value="" style="endArrow=none;html=1;rounded=0;" parent="1" edge="1">
          <mxGeometry width="50" height="50" relative="1" as="geometry">
            <mxPoint x="339" y="617" as="sourcePoint" />
            <mxPoint x="369" y="617" as="targetPoint" />
          </mxGeometry>
        </mxCell>
        <mxCell id="j-hy3Fhhmm9KlKnblh2B-88" value="" style="endArrow=none;html=1;rounded=0;" parent="1" edge="1">
          <mxGeometry width="50" height="50" relative="1" as="geometry">
            <mxPoint x="339" y="618" as="sourcePoint" />
            <mxPoint x="339" y="608" as="targetPoint" />
            <Array as="points">
              <mxPoint x="339" y="577" />
            </Array>
          </mxGeometry>
        </mxCell>
        <mxCell id="j-hy3Fhhmm9KlKnblh2B-92" style="edgeStyle=orthogonalEdgeStyle;rounded=0;orthogonalLoop=1;jettySize=auto;html=1;curved=1;exitX=0.5;exitY=0;exitDx=0;exitDy=0;" parent="1" source="j-hy3Fhhmm9KlKnblh2B-90" edge="1">
          <mxGeometry relative="1" as="geometry">
            <mxPoint x="338" y="590" as="targetPoint" />
            <Array as="points">
              <mxPoint x="468" y="690" />
              <mxPoint x="468" y="640" />
              <mxPoint x="318" y="640" />
              <mxPoint x="318" y="590" />
            </Array>
          </mxGeometry>
        </mxCell>
        <mxCell id="j-hy3Fhhmm9KlKnblh2B-97" style="edgeStyle=orthogonalEdgeStyle;rounded=0;orthogonalLoop=1;jettySize=auto;html=1;entryX=0.5;entryY=0;entryDx=0;entryDy=0;curved=1;" parent="1" source="j-hy3Fhhmm9KlKnblh2B-90" target="R_dqwmXt6rTbObLlXqyq-89" edge="1">
          <mxGeometry relative="1" as="geometry" />
        </mxCell>
        <mxCell id="j-hy3Fhhmm9KlKnblh2B-90" value="Item-dependent attributes" style="text;html=1;align=center;verticalAlign=middle;whiteSpace=wrap;rounded=0;" parent="1" vertex="1">
          <mxGeometry x="428" y="690" width="90.58" height="30" as="geometry" />
        </mxCell>
        <mxCell id="j-hy3Fhhmm9KlKnblh2B-95" value="User scans item, automatically searches/brings up the correct item regardless of type/method of scanning" style="text;html=1;align=center;verticalAlign=middle;whiteSpace=wrap;rounded=0;" parent="1" vertex="1">
          <mxGeometry x="220" y="280" width="230" height="30" as="geometry" />
        </mxCell>
        <mxCell id="j-hy3Fhhmm9KlKnblh2B-98" style="edgeStyle=orthogonalEdgeStyle;rounded=0;orthogonalLoop=1;jettySize=auto;html=1;entryX=1.002;entryY=0.113;entryDx=0;entryDy=0;entryPerimeter=0;startArrow=classic;startFill=1;" parent="1" source="R_dqwmXt6rTbObLlXqyq-12" target="j-hy3Fhhmm9KlKnblh2B-74" edge="1">
          <mxGeometry relative="1" as="geometry">
            <mxPoint x="1070" y="440" as="sourcePoint" />
            <Array as="points">
              <mxPoint x="1060" y="506" />
            </Array>
          </mxGeometry>
        </mxCell>
        <mxCell id="j-hy3Fhhmm9KlKnblh2B-99" value="Schemas tracked/handled by the database administrators through &quot;add item type&quot; functionality&amp;nbsp;" style="text;html=1;align=center;verticalAlign=middle;whiteSpace=wrap;rounded=0;" parent="1" vertex="1">
          <mxGeometry x="860" y="469" width="190" height="30" as="geometry" />
        </mxCell>
        <mxCell id="j-hy3Fhhmm9KlKnblh2B-103" value="When adding a new item to the database, administrators &lt;b&gt;must&lt;/b&gt; tag the item with one (or several?) scannable idenfiers based on their needs" style="text;html=1;align=center;verticalAlign=middle;whiteSpace=wrap;rounded=0;" parent="1" vertex="1">
          <mxGeometry x="234.98" y="953" width="213" height="30" as="geometry" />
        </mxCell>
        <mxCell id="j-hy3Fhhmm9KlKnblh2B-109" value="" style="group" parent="1" vertex="1" connectable="0">
          <mxGeometry x="578.9973312137203" y="359.99733121372026" width="110.53" height="101.72163393198548" as="geometry" />
        </mxCell>
        <mxCell id="j-hy3Fhhmm9KlKnblh2B-73" value="" style="rounded=1;whiteSpace=wrap;html=1;rotation=45;" parent="j-hy3Fhhmm9KlKnblh2B-109" vertex="1">
          <mxGeometry x="12.29" y="59.78" width="98.24" height="8.45" as="geometry" />
        </mxCell>
        <mxCell id="j-hy3Fhhmm9KlKnblh2B-72" value="" style="shape=dataStorage;whiteSpace=wrap;html=1;fixedSize=1;rotation=45;" parent="j-hy3Fhhmm9KlKnblh2B-109" vertex="1">
          <mxGeometry x="6.002668786279742" y="14.202668786279787" width="56.98" height="40.58" as="geometry" />
        </mxCell>
        <mxCell id="FxQ_RWNpNO3V7hblEYbC-1" value="&lt;h1 style=&quot;margin-top: 0px;&quot;&gt;&lt;span style=&quot;background-color: initial;&quot;&gt;STIMS: Smart Tagging Inventory Management System&lt;br&gt;&lt;/span&gt;&lt;span style=&quot;font-size: 12px; font-weight: 400;&quot;&gt;&lt;span style=&quot;background-color: initial;&quot;&gt;The main area of focus for this project is creating and manipulating inventory databases to enable easy storage and retrieval of physical items through the implementation of a custom tagging system.&amp;nbsp;&lt;/span&gt;&lt;/span&gt;&lt;span style=&quot;background-color: initial; font-size: 12px; font-weight: 400;&quot;&gt;The project will consist of a backend built in an object oriented langauge to utilize the power of inheritance to create different item structures.&amp;nbsp;&lt;/span&gt;&lt;span style=&quot;background-color: initial; font-size: 12px; font-weight: 400;&quot;&gt;A GUI will also be built to facilitate ease of use by end-users when performing database actions.&lt;/span&gt;&lt;/h1&gt;" style="text;html=1;whiteSpace=wrap;overflow=hidden;rounded=0;" vertex="1" parent="1">
          <mxGeometry x="94" y="-86" width="755" height="153" as="geometry" />
        </mxCell>
      </root>
    </mxGraphModel>
  </diagram>
</mxfile>
